<svg xmlns="http://www.w3.org/2000/svg" xmlns:xlink="http://www.w3.org/1999/xlink" preserveAspectRatio="xMidYMid" width="32" height="32" viewBox="0 0 32 32">
  <defs>
    <style>

      .cls-3 {
        fill: #eeeeee;
      }

      .cls-4 {
        fill: #dfdfdf;
      }
    </style>
  </defs>
  <g id="arrow">
    <path d="M16.000,32.000 C7.163,32.000 -0.000,24.837 -0.000,16.000 C-0.000,7.163 7.163,-0.000 16.000,-0.000 C24.837,-0.000 32.000,7.163 32.000,16.000 C32.000,24.837 24.837,32.000 16.000,32.000 ZM16.000,2.000 C8.268,2.000 2.000,8.268 2.000,16.000 C2.000,23.732 8.268,30.000 16.000,30.000 C23.732,30.000 30.000,23.732 30.000,16.000 C30.000,8.268 23.732,2.000 16.000,2.000 Z" id="path-1" class="cls-3" fill-rule="evenodd"/>
    <path d="M20.714,15.634 C20.714,15.634 16.868,19.480 16.868,19.480 C16.825,19.562 16.782,19.645 16.713,19.714 C16.517,19.910 16.257,19.996 16.000,19.985 C15.743,19.996 15.483,19.910 15.287,19.714 C15.218,19.645 15.175,19.562 15.132,19.480 C15.132,19.480 11.286,15.634 11.286,15.634 C10.914,15.262 10.914,14.660 11.286,14.287 C11.658,13.915 12.261,13.915 12.633,14.287 C12.633,14.287 16.000,17.655 16.000,17.655 C16.000,17.655 19.367,14.287 19.367,14.287 C19.739,13.915 20.342,13.915 20.714,14.287 C21.086,14.660 21.086,15.262 20.714,15.634 Z" id="path-2" class="cls-4" fill-rule="evenodd"/>
  </g>
</svg>
