<svg xmlns="http://www.w3.org/2000/svg" width="32" height="32" viewBox="0 0 32 32">
  <defs>
    <style>
      .cls-1 {
        fill: #505155;
        fill-rule: evenodd;
      }
    </style>
  </defs>
  <path id="Arrow" class="cls-1" d="M750,604a16,16,0,1,1,16-16A16,16,0,0,1,750,604Zm0-30a14,14,0,1,0,14,14A14,14,0,0,0,750,574Zm0.868,17.48a0.915,0.915,0,0,1-.155.234,1.071,1.071,0,0,1-1.426,0,0.915,0.915,0,0,1-.155-0.234l-3.846-3.846a0.952,0.952,0,1,1,1.347-1.347L750,589.655l3.367-3.368a0.952,0.952,0,1,1,1.347,1.347Z" transform="translate(-734 -572)"/>
</svg>
