<svg xmlns="http://www.w3.org/2000/svg" xmlns:xlink="http://www.w3.org/1999/xlink" preserveAspectRatio="xMidYMid" width="194" height="49" viewBox="0 0 194 49">
  <defs>
    <style>

      .cls-3 {
        fill: #79a83b;
      }

      .cls-4 {
        fill: #ffffff;
      }
    </style>
  </defs>
  <g id="group-1">
    <path d="M72.306,12.126 C71.919,13.193 71.372,14.140 70.666,14.966 C69.959,15.793 69.119,16.453 68.146,16.946 C67.172,17.440 66.086,17.686 64.886,17.686 C64.886,17.686 54.966,17.686 54.966,17.686 C54.966,17.686 54.966,28.406 54.966,28.406 C54.966,28.406 52.926,28.406 52.926,28.406 C52.926,28.406 52.926,0.006 52.926,0.006 C52.926,0.006 64.606,0.006 64.606,0.006 C65.806,0.006 66.912,0.260 67.926,0.766 C68.939,1.273 69.812,1.946 70.546,2.786 C71.279,3.626 71.852,4.573 72.266,5.626 C72.679,6.680 72.886,7.740 72.886,8.806 C72.886,9.953 72.692,11.060 72.306,12.126 ZM70.306,6.146 C69.972,5.306 69.519,4.566 68.946,3.926 C68.372,3.286 67.706,2.780 66.946,2.406 C66.186,2.033 65.379,1.846 64.526,1.846 C64.526,1.846 54.966,1.846 54.966,1.846 C54.966,1.846 54.966,15.806 54.966,15.806 C54.966,15.806 64.766,15.806 64.766,15.806 C65.699,15.806 66.539,15.613 67.286,15.226 C68.032,14.840 68.666,14.320 69.186,13.666 C69.706,13.013 70.106,12.266 70.386,11.426 C70.666,10.586 70.806,9.713 70.806,8.806 C70.806,7.873 70.639,6.986 70.306,6.146 ZM26.526,28.406 C26.526,28.406 20.286,13.806 20.286,13.806 C20.286,13.806 14.006,28.406 14.006,28.406 C14.006,28.406 12.126,28.406 12.126,28.406 C12.126,28.406 0.006,0.006 0.006,0.006 C0.006,0.006 2.206,0.006 2.206,0.006 C2.206,0.006 13.126,26.006 13.126,26.006 C13.126,26.006 19.006,12.166 19.006,12.166 C19.006,12.166 14.006,0.206 14.006,0.206 C14.006,0.206 16.006,0.206 16.006,0.206 C16.006,0.206 20.246,10.526 20.246,10.526 C20.246,10.526 24.486,0.206 24.486,0.206 C24.486,0.206 26.486,0.206 26.486,0.206 C26.486,0.206 21.486,12.166 21.486,12.166 C21.486,12.166 27.446,26.006 27.446,26.006 C27.446,26.006 38.326,0.006 38.326,0.006 C38.326,0.006 40.566,0.006 40.566,0.006 C40.566,0.006 28.406,28.406 28.406,28.406 C28.406,28.406 26.526,28.406 26.526,28.406 Z" id="path-1" class="cls-3" fill-rule="evenodd"/>
    <path d="M186.924,28.406 C186.924,28.406 184.724,22.046 184.724,22.046 C184.724,22.046 175.884,22.046 175.884,22.046 C175.884,22.046 173.724,28.406 173.724,28.406 C173.724,28.406 166.764,28.406 166.764,28.406 C166.764,28.406 177.684,0.006 177.684,0.006 C177.684,0.006 183.004,0.006 183.004,0.006 C183.004,0.006 193.884,28.406 193.884,28.406 C193.884,28.406 186.924,28.406 186.924,28.406 ZM180.324,6.966 C180.324,6.966 176.924,17.526 176.924,17.526 C176.924,17.526 183.604,17.526 183.604,17.526 C183.604,17.526 180.324,6.966 180.324,6.966 ZM149.565,11.406 C149.565,11.406 143.405,23.766 143.405,23.766 C143.405,23.766 139.885,23.766 139.885,23.766 C139.885,23.766 133.725,11.406 133.725,11.406 C133.725,11.406 133.725,28.406 133.725,28.406 C133.725,28.406 127.165,28.406 127.165,28.406 C127.165,28.406 127.165,0.006 127.165,0.006 C127.165,0.006 134.285,0.006 134.285,0.006 C134.285,0.006 141.645,14.846 141.645,14.846 C141.645,14.846 149.045,0.006 149.045,0.006 C149.045,0.006 156.125,0.006 156.125,0.006 C156.125,0.006 156.125,28.406 156.125,28.406 C156.125,28.406 149.565,28.406 149.565,28.406 C149.565,28.406 149.565,11.406 149.565,11.406 ZM107.166,11.406 C107.166,11.406 101.006,23.766 101.006,23.766 C101.006,23.766 97.486,23.766 97.486,23.766 C97.486,23.766 91.326,11.406 91.326,11.406 C91.326,11.406 91.326,28.406 91.326,28.406 C91.326,28.406 84.766,28.406 84.766,28.406 C84.766,28.406 84.766,0.006 84.766,0.006 C84.766,0.006 91.886,0.006 91.886,0.006 C91.886,0.006 99.246,14.846 99.246,14.846 C99.246,14.846 106.646,0.006 106.646,0.006 C106.646,0.006 113.726,0.006 113.726,0.006 C113.726,0.006 113.726,28.406 113.726,28.406 C113.726,28.406 107.166,28.406 107.166,28.406 C107.166,28.406 107.166,11.406 107.166,11.406 Z" id="path-2" class="cls-4" fill-rule="evenodd"/>
    <path d="M185.718,48.406 C185.718,48.406 185.718,39.886 185.718,39.886 C185.718,39.886 187.374,39.886 187.374,39.886 C187.374,39.886 187.374,46.954 187.374,46.954 C187.374,46.954 191.718,46.954 191.718,46.954 C191.718,46.954 191.718,48.406 191.718,48.406 C191.718,48.406 185.718,48.406 185.718,48.406 ZM173.682,47.164 C173.322,47.560 172.894,47.876 172.398,48.112 C171.902,48.348 171.362,48.466 170.778,48.466 C170.178,48.466 169.630,48.344 169.134,48.100 C168.638,47.856 168.212,47.532 167.856,47.128 C167.500,46.724 167.226,46.262 167.034,45.742 C166.842,45.222 166.746,44.690 166.746,44.146 C166.746,43.578 166.848,43.034 167.052,42.514 C167.256,41.994 167.540,41.534 167.904,41.134 C168.268,40.734 168.698,40.416 169.194,40.180 C169.690,39.944 170.230,39.826 170.814,39.826 C171.414,39.826 171.962,39.952 172.458,40.204 C172.954,40.456 173.378,40.786 173.730,41.194 C174.082,41.602 174.354,42.066 174.546,42.586 C174.738,43.106 174.834,43.634 174.834,44.170 C174.834,44.738 174.732,45.280 174.528,45.796 C174.324,46.312 174.042,46.768 173.682,47.164 ZM172.998,43.078 C172.886,42.734 172.728,42.430 172.524,42.166 C172.320,41.902 172.072,41.692 171.780,41.536 C171.488,41.380 171.158,41.302 170.790,41.302 C170.406,41.302 170.068,41.384 169.776,41.548 C169.484,41.712 169.236,41.928 169.032,42.196 C168.828,42.464 168.674,42.768 168.570,43.108 C168.466,43.448 168.414,43.794 168.414,44.146 C168.414,44.514 168.468,44.870 168.576,45.214 C168.684,45.558 168.840,45.862 169.044,46.126 C169.248,46.390 169.498,46.602 169.794,46.762 C170.090,46.922 170.426,47.002 170.802,47.002 C171.186,47.002 171.524,46.920 171.816,46.756 C172.108,46.592 172.354,46.374 172.554,46.102 C172.754,45.830 172.906,45.524 173.010,45.184 C173.114,44.844 173.166,44.498 173.166,44.146 C173.166,43.778 173.110,43.422 172.998,43.078 ZM155.202,47.164 C154.842,47.560 154.414,47.876 153.918,48.112 C153.422,48.348 152.882,48.466 152.298,48.466 C151.698,48.466 151.150,48.344 150.654,48.100 C150.158,47.856 149.732,47.532 149.376,47.128 C149.020,46.724 148.746,46.262 148.554,45.742 C148.362,45.222 148.266,44.690 148.266,44.146 C148.266,43.578 148.368,43.034 148.572,42.514 C148.776,41.994 149.060,41.534 149.424,41.134 C149.788,40.734 150.218,40.416 150.714,40.180 C151.210,39.944 151.750,39.826 152.334,39.826 C152.934,39.826 153.482,39.952 153.978,40.204 C154.474,40.456 154.898,40.786 155.250,41.194 C155.602,41.602 155.874,42.066 156.066,42.586 C156.258,43.106 156.354,43.634 156.354,44.170 C156.354,44.738 156.252,45.280 156.048,45.796 C155.844,46.312 155.562,46.768 155.202,47.164 ZM154.518,43.078 C154.406,42.734 154.248,42.430 154.044,42.166 C153.840,41.902 153.592,41.692 153.300,41.536 C153.008,41.380 152.678,41.302 152.310,41.302 C151.926,41.302 151.588,41.384 151.296,41.548 C151.004,41.712 150.756,41.928 150.552,42.196 C150.348,42.464 150.194,42.768 150.090,43.108 C149.986,43.448 149.934,43.794 149.934,44.146 C149.934,44.514 149.988,44.870 150.096,45.214 C150.204,45.558 150.360,45.862 150.564,46.126 C150.768,46.390 151.018,46.602 151.314,46.762 C151.610,46.922 151.946,47.002 152.322,47.002 C152.706,47.002 153.044,46.920 153.336,46.756 C153.628,46.592 153.874,46.374 154.074,46.102 C154.274,45.830 154.426,45.524 154.530,45.184 C154.634,44.844 154.686,44.498 154.686,44.146 C154.686,43.778 154.630,43.422 154.518,43.078 ZM135.738,44.770 C135.738,44.770 131.874,44.770 131.874,44.770 C131.874,44.770 131.874,48.406 131.874,48.406 C131.874,48.406 130.218,48.406 130.218,48.406 C130.218,48.406 130.218,39.886 130.218,39.886 C130.218,39.886 131.874,39.886 131.874,39.886 C131.874,39.886 131.874,43.330 131.874,43.330 C131.874,43.330 135.738,43.330 135.738,43.330 C135.738,43.330 135.738,39.886 135.738,39.886 C135.738,39.886 137.382,39.886 137.382,39.886 C137.382,39.886 137.382,48.406 137.382,48.406 C137.382,48.406 135.738,48.406 135.738,48.406 C135.738,48.406 135.738,44.770 135.738,44.770 ZM114.408,46.138 C114.620,46.402 114.874,46.614 115.170,46.774 C115.466,46.934 115.790,47.014 116.142,47.014 C116.326,47.014 116.514,46.990 116.706,46.942 C116.898,46.894 117.084,46.818 117.264,46.714 C117.444,46.610 117.610,46.476 117.762,46.312 C117.914,46.148 118.038,45.950 118.134,45.718 C118.134,45.718 119.490,46.498 119.490,46.498 C119.362,46.818 119.176,47.100 118.932,47.344 C118.688,47.588 118.410,47.794 118.098,47.962 C117.786,48.130 117.458,48.258 117.114,48.346 C116.770,48.434 116.430,48.478 116.094,48.478 C115.502,48.478 114.960,48.350 114.468,48.094 C113.976,47.838 113.552,47.504 113.196,47.092 C112.840,46.680 112.564,46.212 112.368,45.688 C112.172,45.164 112.074,44.630 112.074,44.086 C112.074,43.566 112.166,43.052 112.350,42.544 C112.534,42.036 112.800,41.582 113.148,41.182 C113.496,40.782 113.922,40.458 114.426,40.210 C114.930,39.962 115.506,39.838 116.154,39.838 C116.914,39.838 117.572,40.010 118.128,40.354 C118.684,40.698 119.094,41.146 119.358,41.698 C119.358,41.698 118.086,42.574 118.086,42.574 C117.990,42.334 117.866,42.132 117.714,41.968 C117.562,41.804 117.396,41.674 117.216,41.578 C117.036,41.482 116.850,41.412 116.658,41.368 C116.466,41.324 116.282,41.302 116.106,41.302 C115.714,41.302 115.370,41.386 115.074,41.554 C114.778,41.722 114.532,41.940 114.336,42.208 C114.140,42.476 113.992,42.780 113.892,43.120 C113.792,43.460 113.742,43.798 113.742,44.134 C113.742,44.510 113.800,44.872 113.916,45.220 C114.032,45.568 114.196,45.874 114.408,46.138 ZM100.770,47.926 C100.482,48.126 100.146,48.272 99.762,48.364 C99.378,48.456 98.978,48.502 98.562,48.502 C97.922,48.502 97.290,48.406 96.666,48.214 C96.042,48.022 95.482,47.750 94.986,47.398 C94.986,47.398 95.718,45.970 95.718,45.970 C95.790,46.042 95.920,46.136 96.108,46.252 C96.296,46.368 96.518,46.484 96.774,46.600 C97.030,46.716 97.314,46.814 97.626,46.894 C97.938,46.974 98.258,47.014 98.586,47.014 C99.498,47.014 99.954,46.722 99.954,46.138 C99.954,45.946 99.902,45.786 99.798,45.658 C99.694,45.530 99.546,45.418 99.354,45.322 C99.162,45.226 98.930,45.138 98.658,45.058 C98.386,44.978 98.082,44.894 97.746,44.806 C97.338,44.694 96.984,44.572 96.684,44.440 C96.384,44.308 96.134,44.154 95.934,43.978 C95.734,43.802 95.584,43.594 95.484,43.354 C95.384,43.114 95.334,42.830 95.334,42.502 C95.334,42.070 95.414,41.686 95.574,41.350 C95.734,41.014 95.956,40.734 96.240,40.510 C96.524,40.286 96.854,40.116 97.230,40.000 C97.606,39.884 98.010,39.826 98.442,39.826 C99.042,39.826 99.594,39.920 100.098,40.108 C100.602,40.296 101.042,40.518 101.418,40.774 C101.418,40.774 100.686,42.118 100.686,42.118 C100.630,42.062 100.528,41.986 100.380,41.890 C100.232,41.794 100.052,41.700 99.840,41.608 C99.628,41.516 99.398,41.438 99.150,41.374 C98.902,41.310 98.650,41.278 98.394,41.278 C97.938,41.278 97.598,41.362 97.374,41.530 C97.150,41.698 97.038,41.934 97.038,42.238 C97.038,42.414 97.080,42.560 97.164,42.676 C97.248,42.792 97.370,42.894 97.530,42.982 C97.690,43.070 97.892,43.150 98.136,43.222 C98.380,43.294 98.662,43.370 98.982,43.450 C99.398,43.562 99.776,43.682 100.116,43.810 C100.456,43.938 100.744,44.098 100.980,44.290 C101.216,44.482 101.398,44.712 101.526,44.980 C101.654,45.248 101.718,45.578 101.718,45.970 C101.718,46.426 101.632,46.816 101.460,47.140 C101.288,47.464 101.058,47.726 100.770,47.926 ZM70.086,48.406 C70.086,48.406 68.430,48.406 68.430,48.406 C68.430,48.406 68.430,41.338 68.430,41.338 C68.430,41.338 65.706,41.338 65.706,41.338 C65.706,41.338 65.706,39.886 65.706,39.886 C65.706,39.886 72.798,39.886 72.798,39.886 C72.798,39.886 72.798,41.338 72.798,41.338 C72.798,41.338 70.086,41.338 70.086,41.338 C70.086,41.338 70.086,48.406 70.086,48.406 ZM53.406,44.770 C53.406,44.770 49.542,44.770 49.542,44.770 C49.542,44.770 49.542,48.406 49.542,48.406 C49.542,48.406 47.886,48.406 47.886,48.406 C47.886,48.406 47.886,39.886 47.886,39.886 C47.886,39.886 49.542,39.886 49.542,39.886 C49.542,39.886 49.542,43.330 49.542,43.330 C49.542,43.330 53.406,43.330 53.406,43.330 C53.406,43.330 53.406,39.886 53.406,39.886 C53.406,39.886 55.050,39.886 55.050,39.886 C55.050,39.886 55.050,48.406 55.050,48.406 C55.050,48.406 53.406,48.406 53.406,48.406 C53.406,48.406 53.406,44.770 53.406,44.770 ZM35.490,47.446 C34.834,48.126 34.078,48.466 33.222,48.466 C32.678,48.466 32.166,48.346 31.686,48.106 C31.206,47.866 30.788,47.544 30.432,47.140 C30.076,46.736 29.796,46.270 29.592,45.742 C29.388,45.214 29.286,44.666 29.286,44.098 C29.286,43.514 29.388,42.964 29.592,42.448 C29.796,41.932 30.080,41.480 30.444,41.092 C30.808,40.704 31.236,40.396 31.728,40.168 C32.220,39.940 32.754,39.826 33.330,39.826 C34.106,39.826 34.770,39.994 35.322,40.330 C35.874,40.666 36.290,41.118 36.570,41.686 C36.570,41.686 35.334,42.598 35.334,42.598 C35.126,42.174 34.840,41.850 34.476,41.626 C34.112,41.402 33.710,41.290 33.270,41.290 C32.918,41.290 32.600,41.366 32.316,41.518 C32.032,41.670 31.790,41.878 31.590,42.142 C31.390,42.406 31.234,42.710 31.122,43.054 C31.010,43.398 30.954,43.762 30.954,44.146 C30.954,44.546 31.014,44.920 31.134,45.268 C31.254,45.616 31.422,45.918 31.638,46.174 C31.854,46.430 32.108,46.632 32.400,46.780 C32.692,46.928 33.014,47.002 33.366,47.002 C34.150,47.002 34.858,46.614 35.490,45.838 C35.490,45.838 35.490,45.238 35.490,45.238 C35.490,45.238 33.774,45.238 33.774,45.238 C33.774,45.238 33.774,44.026 33.774,44.026 C33.774,44.026 36.858,44.026 36.858,44.026 C36.858,44.026 36.858,48.406 36.858,48.406 C36.858,48.406 35.490,48.406 35.490,48.406 C35.490,48.406 35.490,47.446 35.490,47.446 ZM16.746,39.898 C16.746,39.898 18.402,39.898 18.402,39.898 C18.402,39.898 18.402,48.406 18.402,48.406 C18.402,48.406 16.746,48.406 16.746,48.406 C16.746,48.406 16.746,39.898 16.746,39.898 ZM1.950,43.534 C1.950,43.534 5.334,43.534 5.334,43.534 C5.334,43.534 5.334,44.878 5.334,44.878 C5.334,44.878 1.950,44.878 1.950,44.878 C1.950,44.878 1.950,48.406 1.950,48.406 C1.950,48.406 0.294,48.406 0.294,48.406 C0.294,48.406 0.294,39.886 0.294,39.886 C0.294,39.886 6.018,39.886 6.018,39.886 C6.018,39.886 6.018,41.338 6.018,41.338 C6.018,41.338 1.950,41.338 1.950,41.338 C1.950,41.338 1.950,43.534 1.950,43.534 Z" id="path-3" class="cls-4" fill-rule="evenodd"/>
  </g>
</svg>
